HIERARCHY
ROOT Hips
{
	OFFSET 0.00000 0.00000 0.00000
	CHANNELS 6 Xposition Yposition Zposition Yrotation Zrotation Xrotation 
	JOINT Lumbar
	{
		OFFSET 0 0 0
		CHANNELS 3 Zrotation Xrotation Yrotation
		JOINT Neck
		{
			OFFSET 0.00 0.2701 0.00
			CHANNELS 3 Zrotation Xrotation Yrotation
			End Site
			{
				OFFSET 0.00 0.1379 0.00
			}
		}
		JOINT RightShoulder
		{
			OFFSET 0.0119 0.2289 0.1181
			CHANNELS 3 Zrotation Xrotation Yrotation
			JOINT RightElbow
			{
				OFFSET 0.00 -0.1475 0.00
				CHANNELS 2 Zrotation Yrotation
				JOINT RightWrist
				{
					OFFSET 0.00 -0.1605 0.00
					CHANNELS 2 Zrotation Xrotation
					End Site
					{
						OFFSET 0.0040 -0.1068 0.0006
					}
				}
			}
		}
		JOINT LeftShoulder
		{
			OFFSET 0.0119 0.2289 -0.1181
			CHANNELS 3 Zrotation Xrotation Yrotation
			JOINT LeftElbow
			{
				OFFSET 0.00 -0.1475 0.00
				CHANNELS 2 Zrotation Yrotation
				JOINT LeftWrist
				{
					OFFSET 0.00 -0.1605 0.00
					CHANNELS 2 Zrotation Xrotation
					End Site
					{
						OFFSET 0.0040 -0.1068 -0.0006
					}
				}
			}
		}
	}
	JOINT RightHip
	{
		OFFSET 0.0316 -0.0424 0.0458
		CHANNELS 3 Zrotation Xrotation Yrotation
		JOINT RightKnee
		{
			OFFSET 0.00 -0.2438 0.00
			CHANNELS 1 Zrotation
			JOINT RightAnkle
			{
				OFFSET 0.00 -0.2449 0.00
				CHANNELS 3 Zrotation Xrotation Yrotation
				End Site
				{
					OFFSET 0.1237 -0.0542 0.0051
				}
			}
		}
	}
	JOINT LeftHip
	{
		OFFSET 0.0316 -0.0424 -0.0458
		CHANNELS 3 Zrotation Xrotation Yrotation
		JOINT LeftKnee
		{
			OFFSET 0.00 -0.2438 0.00
			CHANNELS 1 Zrotation
			JOINT LeftAnkle
			{
				OFFSET 0.00 -0.2449 0.00
				CHANNELS 3 Zrotation Xrotation Yrotation
				End Site
				{
					OFFSET 0.1237 -0.0542 -0.0051
				}
			}
		}
	}
}
MOTION
Frames: 17
Frame Time: 0.02
-0 0.57926 -0 177.06068 0 -2.60953 6.84513 3.16689 0.30701 -24.47369 0.97608 0.78921 9.4909 -71.45628 -85.6841 25.07755 62.48613 -31.6221 -1.32338 36.35809 71.8608 52.59191 18.22182 -86.69985 -34.01355 4.20224 -4.61311 7.492 -4.98778 -7.78491 4.61594 -6.01496 -10.1746 -3.9066 1.89642 2.85219 -7.68468 6.70976 6.88862 10.5785
0.00019 0.57928 0.00033 177.05009 0 -2.62599 6.82755 3.17685 0.31543 -24.80186 1.01178 0.80282 9.5381 -71.51031 -85.92561 25.10925 62.6846 -31.67143 -1.33504 36.40237 71.82956 52.6858 18.3377 -86.54177 -34.24147 4.18875 -4.58162 7.48111 -4.97399 -7.80215 4.6012 -5.99707 -10.20225 -3.87261 1.87826 2.8267 -7.7135 6.70976 6.8935 10.61743
0.00038 0.5793 0.00066 177.03934 0 -2.64241 6.80969 3.1867 0.32382 -25.12934 1.0474 0.81665 9.58607 -71.56422 -86.16559 25.14079 62.88193 -31.71964 -1.34671 36.44738 71.79827 52.77723 18.4546 -86.38272 -34.46648 4.17518 -4.55005 7.47026 -4.96002 -7.81927 4.58646 -5.97935 -10.22975 -3.83872 1.86023 2.80214 -7.74191 6.70976 6.89819 10.65558
0.00057 0.57932 0.00099 177.02825 0 -2.65861 6.7917 3.19624 0.33216 -25.45751 1.08287 0.83119 9.63749 -71.61827 -86.40297 25.172 63.07378 -31.76467 -1.35826 36.49608 71.76662 52.86089 18.57578 -86.21383 -34.68235 4.16049 -4.51871 7.45921 -4.94596 -7.83544 4.57174 -5.96214 -10.25674 -3.80512 1.84219 2.7797 -7.76925 6.70986 6.90257 10.69189
0.00074 0.57934 0.00133 177.0195 0 -2.67567 6.77582 3.20744 0.34075 -25.78235 1.11893 0.84159 9.6704 -71.67171 -86.65562 25.20492 63.29111 -31.82747 -1.37011 36.52559 71.73708 52.98685 18.67334 -86.09133 -34.94706 4.1509 -4.48723 7.44894 -4.93333 -7.85581 4.55711 -5.94222 -10.28619 -3.77023 1.82381 2.74443 -7.80261 6.70953 6.90908 10.73907
0.00096 0.57936 0.00165 177.00542 0 -2.69112 6.75453 3.21514 0.3488 -26.11371 1.15383 0.86099 9.7426 -71.72631 -86.87467 25.23422 63.45673 -31.85203 -1.38154 36.59541 71.70294 53.02249 18.82136 -85.87479 -35.1079 4.13108 -4.45536 7.43719 -4.91704 -7.86786 4.54216 -5.92803 -10.3106 -3.73793 1.80643 2.73742 -7.82295 6.71004 6.91074 10.76243
0.0013 0.57937 0.00197 176.97882 0 -2.70063 6.72479 3.2126 0.35532 -26.47399 1.1856 0.90451 9.92943 -71.78566 -87.01044 25.25387 63.46144 -31.77329 -1.39038 36.78586 71.65538 52.81136 19.10989 -85.35781 -34.9765 4.07812 -4.42714 7.41987 -4.89494 -7.85201 4.52697 -5.93016 -10.31986 -3.71347 1.78923 2.8019 -7.80878 6.71348 6.90142 10.72474
0.0017 0.57937 0.00227 176.9463 0 -2.70881 6.68809 3.20648 0.36113 -26.83882 1.2164 0.95731 10.15598 -71.84539 -87.10935 25.26991 63.41902 -31.65576 -1.39927 37.01613 71.60269 52.51155 19.44728 -84.75826 -34.73987 4.01653 -4.39734 7.40143 -4.86814 -7.82904 4.51127 -5.938 -10.32438 -3.69143 1.7736 2.89619 -7.78112 6.71752 6.88674 10.66212
0.00208 0.57938 0.00258 176.91513 0 -2.71852 6.65064 3.20255 0.36749 -27.19547 1.24745 1.00638 10.35937 -71.90474 -87.22081 25.28726 63.40775 -31.554 -1.4088 37.22158 71.55347 52.24618 19.76477 -84.21544 -34.55625 3.96093 -4.3655 7.38435 -4.84094 -7.81203 4.49538 -5.94291 -10.33174 -3.66783 1.75877 2.98117 -7.75877 6.7211 6.87291 10.60771
0.00241 0.57938 0.0029 176.89002 0 -2.7242 6.63077 3.19683 0.37358 -27.57964 1.2786 1.05334 10.58031 -71.96732 -87.35546 25.30561 63.34828 -31.45882 -1.41467 37.45285 71.50174 51.99227 20.08156 -83.56934 -34.35572 3.89313 -4.34646 7.36324 -4.82528 -7.78195 4.48141 -5.94922 -10.33575 -3.64627 1.73709 3.0482 -7.7402 6.72606 6.86578 10.56634
0.00287 0.57939 0.0032 176.85038 0 -2.7381 6.5713 3.19324 0.37919 -27.90535 1.31018 1.10693 10.77913 -72.02032 -87.42616 25.32151 63.38694 -31.34233 -1.42926 37.64301 71.45113 51.71012 20.40005 -83.14672 -34.15915 3.85305 -4.29893 7.35079 -4.78342 -7.77935 4.46315 -5.95399 -10.34616 -3.62093 1.73061 3.15977 -7.71018 6.72754 6.8434 10.49205
0.00364 0.57943 0.00345 176.77604 0 -2.77403 6.41498 3.20261 0.39053 -28.0865 1.33676 1.1764 10.86687 -72.0701 -87.38308 25.32533 63.63544 -31.16422 -1.45909 37.67621 71.42364 51.22685 20.81068 -83.10686 -34.04925 3.85352 -4.18494 7.35814 -4.67898 -7.83892 4.43537 -5.95302 -10.37026 -3.58533 1.76109 3.38643 -7.65529 6.72597 6.78068 10.33183
0.00454 0.57948 0.00367 176.68632 0 -2.8185 6.21668 3.21287 0.3997 -28.20441 1.36564 1.25231 10.94025 -72.10458 -87.26324 25.3266 64.00042 -30.9694 -1.4996 37.66866 71.38975 50.74383 21.2042 -83.33184 -33.93506 3.88867 -4.03974 7.37511 -4.54661 -7.92998 4.40336 -5.95043 -10.40162 -3.54561 1.80776 3.65699 -7.58883 6.71979 6.70283 10.13979
0.0054 0.57953 0.00389 176.60131 0 -2.85966 6.03093 3.21891 0.40592 -28.34069 1.39687 1.32531 11.04442 -72.13247 -87.14787 25.33478 64.35656 -30.78886 -1.54072 37.70734 71.35186 50.35749 21.53858 -83.61573 -33.79338 3.93377 -3.90154 7.39048 -4.42156 -8.01593 4.3712 -5.94849 -10.43338 -3.50743 1.84991 3.90788 -7.52524 6.71108 6.63147 9.96278
0.00617 0.57956 0.0042 176.52664 0 -2.89818 5.87387 3.2418 0.43055 -28.52471 1.41111 1.3983 11.04037 -72.22293 -87.17454 25.32412 64.51458 -30.57418 -1.55778 37.64809 71.36027 49.56531 22.15139 -83.18273 -33.78298 3.87267 -3.79515 7.3939 -4.31958 -8.05997 4.34576 -5.94667 -10.45057 -3.47113 1.8797 4.15869 -7.47075 6.72123 6.5611 9.78154
0.00717 0.57964 0.0043 176.42573 0 -2.94446 5.64543 3.22877 0.41406 -28.58945 1.46458 1.47302 11.26677 -72.17269 -86.86892 25.34519 65.12646 -30.43287 -1.62874 37.76046 71.24906 49.61224 22.18684 -84.25314 -33.48613 4.03782 -3.61316 7.42479 -4.1623 -8.20239 4.30785 -5.9447 -10.49836 -3.42941 1.93959 4.41961 -7.39539 6.69187 6.48571 9.60307
0.00869 0.57988 0.00387 176.26459 0 -3.00819 5.24574 3.12549 0.30556 -28.38185 1.59695 1.54869 12.05245 -71.79321 -85.82992 25.5137 66.83926 -30.43935 -1.83357 38.5524 70.99443 52.02349 20.56941 -89.87601 -32.51881 4.84582 -3.24693 7.52623 -3.865 -8.57931 4.21595 -5.93822 -10.64141 -3.37862 2.0741 4.69892 -7.25934 6.54702 6.39538 9.43038
